<svg width="780" height="1688" viewBox="0 0 780 1688" fill="none" xmlns="http://www.w3.org/2000/svg">
<path fill-rule="evenodd" clip-rule="evenodd" d="M780 0H0V1688H780V0ZM114 496C107.373 496 102 501.373 102 508V1060C102 1066.63 107.373 1072 114 1072H666C672.628 1072 678 1066.63 678 1060V508C678 501.373 672.628 496 666 496H114Z" fill="#181A1D" fill-opacity="0.6"/>
<mask id="mask0_193_2703" style="mask-type:alpha" maskUnits="userSpaceOnUse" x="100" y="494" width="580" height="580">
<rect x="102" y="496" width="576" height="576" rx="12" stroke="white" stroke-width="4"/>
</mask>
<g mask="url(#mask0_193_2703)">
<rect x="98" y="492" width="76" height="76" fill="white"/>
<rect x="606" y="1000" width="76" height="76" fill="white"/>
<rect x="98" y="1000" width="76" height="76" fill="white"/>
<rect x="606" y="492" width="76" height="76" fill="white"/>
</g>
</svg>
